# xmcd CD database file generated by LOLA_Freedb v0.9beta0
# 
# Track frame offsets:
#      150
#      18894
#      40658
#      59672
#      73319
#      89641
#      105100
#      122383
#      136729
#      153757
#      167686
# 
# Disc length: 2449 seconds
# 
# Revision: 0 
# Processed by: cddbd v1.5.2PL0 Copyright (c) Steve Scherf et al.
# Submitted via: LOLA_Freedb v0.9beta0
# 
DISCID=83098f0b
DTITLE=Tonya Lynn - Back To My First Love
DYEAR=2008
DGENRE=
TTITLE0=Tonya Lynn - Blinded
TTITLE1=Tonya Lynn - That's What Love Can Do
TTITLE2=Tonya Lynn - Back To My First Love
TTITLE3=Tonya Lynn - Angel Dance
TTITLE4=Tonya Lynn - Never Gonna Give Up On You
TTITLE5=Tonya Lynn - Perfect World
TTITLE6=Tonya Lynn - In America
TTITLE7=Tonya Lynn - The Devil Is An Angel Too
TTITLE8=Tonya Lynn - A Matter Of Time
TTITLE9=Tonya Lynn - All My Tears
TTITLE10=Tonya Lynn - Sweetest Gift
EXTD=
EXTT0=
EXTT1=
EXTT2=
EXTT3=
EXTT4=
EXTT5=
EXTT6=
EXTT7=
EXTT8=
EXTT9=
EXTT10=
PLAYORDER=
